<svg width="551" height="568" viewBox="0 0 551 568" fill="none" xmlns="http://www.w3.org/2000/svg">
<g clip-path="url(#clip0_309_69)">
<path d="M386.602 567.986H235.877C234.125 567.984 232.445 567.287 231.206 566.048C229.967 564.809 229.27 563.13 229.268 561.377V455.998C229.27 454.246 229.967 452.566 231.206 451.327C232.445 450.088 234.125 449.391 235.877 449.389H386.602C388.354 449.391 390.034 450.088 391.273 451.327C392.512 452.566 393.208 454.246 393.21 455.998V561.377C393.208 563.129 392.512 564.809 391.273 566.048C390.034 567.287 388.354 567.984 386.602 567.986Z" fill="#F2F2F2"/>
<path d="M140.287 293.286C141.297 291.993 142.012 290.494 142.381 288.894C142.749 287.295 142.762 285.634 142.42 284.029C142.077 282.424 141.386 280.914 140.397 279.604C139.407 278.295 138.143 277.219 136.692 276.451L135.742 175.638L116.9 184.285L121.044 281.786C119.916 284.308 119.752 287.157 120.584 289.792C121.416 292.427 123.186 294.665 125.557 296.083C127.929 297.5 130.739 297.999 133.454 297.483C136.168 296.968 138.6 295.474 140.287 293.286Z" fill="#9E616A"/>
<path d="M139.779 150.114C139.779 150.114 121.45 141.223 118.915 157.998C116.38 174.773 105.954 218.431 105.954 218.431L137.593 216.194L139.779 150.114Z" fill="#9E616A"/>
<path d="M140.287 293.286C141.297 291.993 142.012 290.494 142.381 288.894C142.749 287.295 142.762 285.634 142.42 284.029C142.077 282.424 141.386 280.914 140.397 279.604C139.407 278.295 138.143 277.219 136.692 276.451L135.742 175.638L116.9 184.285L121.044 281.786C119.916 284.308 119.752 287.157 120.584 289.792C121.416 292.427 123.186 294.665 125.557 296.083C127.929 297.5 130.739 297.999 133.454 297.483C136.168 296.968 138.6 295.474 140.287 293.286Z" fill="#9E616A"/>
<path d="M139.779 150.114C139.779 150.114 121.45 141.223 118.915 157.998C116.38 174.773 105.954 218.431 105.954 218.431L137.593 216.194L139.779 150.114Z" fill="#1AB98B"/>
<path d="M86.7077 538.459C85.9676 538.493 85.235 538.299 84.609 537.903C83.9831 537.506 83.4941 536.927 83.2083 536.244C82.9225 535.56 82.8537 534.805 83.0112 534.081C83.1688 533.357 83.545 532.699 84.0891 532.197C84.1802 531.834 84.2455 531.574 84.3366 531.212C84.304 531.133 84.2712 531.055 84.2383 530.976C83.4927 529.215 82.2434 527.713 80.6472 526.66C79.0511 525.607 77.1792 525.049 75.2669 525.056C73.3545 525.063 71.4869 525.635 69.8987 526.7C68.3104 527.765 67.0722 529.276 66.3398 531.042C63.4124 538.093 59.6853 545.156 58.7676 552.61C58.3634 555.905 58.5339 559.246 59.2715 562.483C52.3959 547.484 48.8256 531.183 48.8026 514.684C48.8011 510.543 49.0312 506.406 49.4916 502.292C49.8721 498.919 50.4 495.569 51.0754 492.244C54.7605 474.203 62.6728 457.293 74.1624 442.903C79.7233 439.869 84.2205 435.203 87.0479 429.534C88.0722 427.496 88.7962 425.321 89.1972 423.076C88.57 423.158 87.9324 423.209 87.3051 423.251C87.1097 423.261 86.904 423.271 86.7086 423.281L86.6349 423.285C85.9454 423.316 85.2618 423.147 84.6661 422.798C84.0705 422.449 83.5884 421.936 83.2777 421.32C82.9671 420.704 82.8411 420.011 82.9151 419.325C82.9891 418.638 83.2599 417.988 83.6948 417.452C83.9656 417.119 84.2366 416.786 84.5078 416.453C84.9192 415.939 85.3408 415.435 85.7522 414.921C85.7996 414.872 85.8443 414.82 85.8859 414.766C86.359 414.18 86.832 413.604 87.3051 413.018C86.4416 411.678 85.2802 410.555 83.9114 409.738C79.1706 406.961 72.6301 408.884 69.2055 413.172C65.7708 417.461 65.123 423.477 66.3158 428.835C67.4889 433.394 69.4294 437.72 72.0542 441.628C71.7971 441.957 71.5297 442.276 71.2726 442.605C66.5729 448.648 62.4767 455.137 59.0429 461.979C59.8779 454.314 58.8813 446.56 56.1349 439.355C53.3514 432.64 48.1342 426.985 43.5399 421.18C38.0213 414.207 26.705 417.25 25.7327 426.089C25.7233 426.175 25.7141 426.26 25.7052 426.346C26.3876 426.731 27.0556 427.14 27.7092 427.572C28.5302 428.12 29.1665 428.904 29.5345 429.821C29.9025 430.737 29.9851 431.743 29.7715 432.707C29.5579 433.671 29.058 434.548 28.3374 435.223C27.6168 435.899 26.7091 436.34 25.7332 436.491L25.6332 436.506C25.8763 438.966 26.3061 441.403 26.9187 443.798C28.6938 450.482 31.8307 456.727 36.1327 462.142C40.4347 467.557 45.8089 472.025 51.9186 475.266C52.3196 475.472 52.7105 475.677 53.1115 475.873C49.6616 485.65 47.4975 495.834 46.6739 506.169C46.2076 512.266 46.2351 518.391 46.7562 524.484L46.7253 524.268C45.4089 517.493 41.7946 511.379 36.4929 506.96C28.6185 500.492 17.4935 498.11 8.99842 492.911C8.09559 492.331 7.04585 492.022 5.97297 492.019C4.90009 492.016 3.84882 492.32 2.94318 492.896C2.03754 493.471 1.31531 494.293 0.861639 495.265C0.407969 496.238 0.241801 497.319 0.382727 498.383C0.39412 498.459 0.405689 498.534 0.417456 498.61C1.68381 499.126 2.91681 499.72 4.10929 500.389C4.7917 500.774 5.4597 501.183 6.11329 501.615C6.93437 502.164 7.57061 502.947 7.9386 503.864C8.3066 504.78 8.3892 505.786 8.1756 506.75C7.96201 507.714 7.46218 508.591 6.74158 509.267C6.02099 509.942 5.11326 510.384 4.1373 510.534L4.0373 510.549C3.9653 510.56 3.90361 510.57 3.83173 510.58C5.99548 515.747 9.03236 520.502 12.8094 524.638C17.4753 529.645 23.1146 533.646 29.3817 536.396C35.6487 539.145 42.4114 540.586 49.2551 540.63H49.2654C51.1231 548.702 53.8148 556.56 57.2971 564.077H85.9887C86.0917 563.758 86.1842 563.429 86.2767 563.11C83.621 563.277 80.9548 563.118 78.3376 562.637C80.4664 560.025 82.595 557.392 84.7238 554.78C84.7713 554.731 84.8159 554.68 84.8575 554.626C85.9373 553.289 87.0274 551.962 88.1072 550.625L88.1078 550.624C88.1653 546.526 87.6951 542.438 86.7086 538.46L86.7077 538.459Z" fill="#F2F2F2"/>
<path d="M509.708 538.459C508.968 538.493 508.235 538.299 507.609 537.903C506.983 537.506 506.494 536.927 506.208 536.244C505.922 535.56 505.854 534.805 506.011 534.081C506.169 533.357 506.545 532.699 507.089 532.197C507.18 531.834 507.246 531.574 507.337 531.212C507.304 531.133 507.271 531.055 507.238 530.976C506.493 529.215 505.243 527.713 503.647 526.66C502.051 525.607 500.179 525.049 498.267 525.056C496.355 525.063 494.487 525.635 492.899 526.7C491.31 527.765 490.072 529.276 489.34 531.042C486.412 538.093 482.685 545.156 481.768 552.61C481.363 555.905 481.534 559.246 482.272 562.483C475.396 547.484 471.826 531.183 471.803 514.684C471.801 510.543 472.031 506.406 472.492 502.292C472.872 498.919 473.4 495.569 474.075 492.244C477.761 474.203 485.673 457.293 497.162 442.903C502.723 439.869 507.22 435.203 510.048 429.534C511.072 427.496 511.796 425.321 512.197 423.076C511.57 423.158 510.932 423.209 510.305 423.251C510.11 423.261 509.904 423.271 509.709 423.281L509.635 423.285C508.945 423.316 508.262 423.147 507.666 422.798C507.071 422.449 506.588 421.936 506.278 421.32C505.967 420.704 505.841 420.011 505.915 419.325C505.989 418.638 506.26 417.988 506.695 417.452C506.966 417.119 507.237 416.786 507.508 416.453C507.919 415.939 508.341 415.435 508.752 414.921C508.8 414.872 508.844 414.82 508.886 414.766C509.359 414.18 509.832 413.604 510.305 413.018C509.442 411.678 508.28 410.555 506.911 409.738C502.171 406.961 495.63 408.884 492.205 413.172C488.771 417.461 488.123 423.477 489.316 428.835C490.489 433.394 492.429 437.72 495.054 441.628C494.797 441.957 494.53 442.276 494.273 442.605C489.573 448.648 485.477 455.137 482.043 461.979C482.878 454.314 481.881 446.56 479.135 439.355C476.351 432.64 471.134 426.985 466.54 421.18C461.021 414.207 449.705 417.25 448.733 426.089C448.723 426.175 448.714 426.26 448.705 426.346C449.388 426.731 450.056 427.14 450.709 427.572C451.53 428.12 452.166 428.904 452.534 429.821C452.902 430.737 452.985 431.743 452.771 432.707C452.558 433.671 452.058 434.548 451.337 435.223C450.617 435.899 449.709 436.34 448.733 436.491L448.633 436.506C448.876 438.966 449.306 441.403 449.919 443.798C451.694 450.482 454.831 456.727 459.133 462.142C463.435 467.557 468.809 472.025 474.919 475.266C475.32 475.472 475.71 475.677 476.112 475.873C472.662 485.65 470.498 495.834 469.674 506.169C469.208 512.266 469.235 518.391 469.756 524.484L469.725 524.268C468.409 517.493 464.795 511.379 459.493 506.96C451.619 500.492 440.494 498.11 431.998 492.911C431.096 492.331 430.046 492.022 428.973 492.019C427.9 492.016 426.849 492.32 425.943 492.896C425.038 493.471 424.315 494.293 423.862 495.265C423.408 496.238 423.242 497.319 423.383 498.383C423.394 498.459 423.406 498.534 423.417 498.61C424.684 499.126 425.917 499.72 427.109 500.389C427.792 500.774 428.46 501.183 429.113 501.615C429.934 502.164 430.571 502.947 430.939 503.864C431.307 504.78 431.389 505.786 431.176 506.75C430.962 507.714 430.462 508.591 429.742 509.267C429.021 509.942 428.113 510.384 427.137 510.534L427.037 510.549C426.965 510.56 426.904 510.57 426.832 510.58C428.995 515.747 432.032 520.502 435.809 524.638C440.475 529.645 446.115 533.646 452.382 536.396C458.649 539.145 465.411 540.586 472.255 540.63H472.265C474.123 548.702 476.815 556.56 480.297 564.077H508.989C509.092 563.758 509.184 563.429 509.277 563.11C506.621 563.277 503.955 563.118 501.338 562.637C503.466 560.025 505.595 557.392 507.724 554.78C507.771 554.731 507.816 554.68 507.858 554.626C508.937 553.289 510.027 551.962 511.107 550.625L511.108 550.624C511.165 546.526 510.695 542.438 509.709 538.46L509.708 538.459Z" fill="#F2F2F2"/>
<path d="M399.22 563.889C399.137 563.889 399.055 563.887 398.972 563.885C396.873 563.765 394.9 562.84 393.466 561.302C392.031 559.765 391.244 557.733 391.27 555.63C391.27 542.835 382.13 535.372 373.073 533.651C364.015 531.931 352.775 535.522 348.083 547.427L343.818 558.134C340.131 561.813 335.134 563.879 329.925 563.879C324.716 563.879 319.72 561.813 316.032 558.134L315.779 557.882L315.936 557.561L391.27 403.427V399.65C391.166 398.485 391.166 397.314 391.272 396.15L391.27 7.94662C391.27 6.88252 391.484 5.82926 391.898 4.8493C392.313 3.86935 392.92 2.98266 393.684 2.24187C394.448 1.50107 395.353 0.921247 396.345 0.536787C397.338 0.152328 398.397 -0.028944 399.461 0.00375196C401.56 0.123758 403.533 1.04884 404.967 2.58645C406.402 4.12407 407.189 6.15575 407.163 8.25863V396.195C407.267 397.359 407.267 398.53 407.161 399.695L407.163 403.426L482.654 557.882L482.401 558.134C478.714 561.813 473.717 563.879 468.508 563.879C463.299 563.879 458.303 561.813 454.615 558.134L454.503 557.964L450.35 547.427C445.658 535.523 434.42 531.934 425.36 533.651C416.303 535.371 407.163 542.835 407.163 555.63V555.943C407.163 558.05 406.326 560.07 404.837 561.56C403.347 563.051 401.327 563.888 399.22 563.889Z" fill="#1AB98B"/>
<path d="M537.118 280.986H261.315C258.109 280.982 255.035 279.707 252.768 277.44C250.501 275.173 249.226 272.1 249.222 268.894V76.0655C249.226 72.8595 250.501 69.7857 252.768 67.5187C255.035 65.2517 258.109 63.9765 261.315 63.9729H537.118C540.324 63.9766 543.398 65.2518 545.665 67.5189C547.932 69.7859 549.207 72.8596 549.21 76.0656V268.894C549.207 272.099 547.931 275.173 545.664 277.44C543.397 279.707 540.324 280.982 537.118 280.986Z" fill="white"/>
<path d="M294.39 191.7V176.52L329.15 126.8H350.16V175.42H359.18V191.7H350.16V206H331.35V191.7H294.39ZM332.67 147.48L314.19 175.42H332.67V147.48ZM368.393 164.75C368.393 152.137 370.813 142.2 375.653 134.94C380.567 127.68 388.45 124.05 399.303 124.05C410.157 124.05 418.003 127.68 422.843 134.94C427.757 142.2 430.213 152.137 430.213 164.75C430.213 177.51 427.757 187.52 422.843 194.78C418.003 202.04 410.157 205.67 399.303 205.67C388.45 205.67 380.567 202.04 375.653 194.78C370.813 187.52 368.393 177.51 368.393 164.75ZM411.733 164.75C411.733 157.343 410.927 151.66 409.313 147.7C407.7 143.667 404.363 141.65 399.303 141.65C394.243 141.65 390.907 143.667 389.293 147.7C387.68 151.66 386.873 157.343 386.873 164.75C386.873 169.737 387.167 173.88 387.753 177.18C388.34 180.407 389.513 183.047 391.273 185.1C393.107 187.08 395.783 188.07 399.303 188.07C402.823 188.07 405.463 187.08 407.223 185.1C409.057 183.047 410.267 180.407 410.853 177.18C411.44 173.88 411.733 169.737 411.733 164.75ZM440.591 191.7V176.52L475.351 126.8H496.361V175.42H505.381V191.7H496.361V206H477.551V191.7H440.591ZM478.871 147.48L460.391 175.42H478.871V147.48Z" fill="#1AB98B"/>
<path d="M537.118 282.486H261.315C257.711 282.482 254.256 281.049 251.708 278.5C249.16 275.952 247.726 272.498 247.722 268.894V76.0654C247.726 72.4616 249.16 69.0067 251.708 66.4586C254.256 63.9104 257.711 62.4771 261.315 62.4731H537.118C540.722 62.4772 544.177 63.9106 546.725 66.4587C549.273 69.0069 550.706 72.4617 550.71 76.0654V268.894C550.706 272.498 549.273 275.952 546.725 278.5C544.177 281.048 540.722 282.482 537.118 282.486ZM261.315 65.4731C258.507 65.4762 255.814 66.5931 253.828 68.5789C251.842 70.5646 250.725 73.257 250.722 76.0654V268.894C250.726 271.702 251.843 274.394 253.829 276.38C255.814 278.366 258.507 279.483 261.315 279.486H537.118C539.926 279.483 542.619 278.366 544.604 276.38C546.59 274.394 547.707 271.702 547.71 268.894V76.0654C547.707 73.2571 546.59 70.5647 544.605 68.5789C542.619 66.5932 539.927 65.4762 537.118 65.4731H261.315Z" fill="#1AB98B"/>
<path d="M323.94 243.48C323.94 244.293 323.753 245.04 323.38 245.72C323.007 246.387 322.433 246.927 321.66 247.34C320.887 247.753 319.927 247.96 318.78 247.96H316.66V253H313.24V238.96H318.78C319.9 238.96 320.847 239.153 321.62 239.54C322.393 239.927 322.973 240.46 323.36 241.14C323.747 241.82 323.94 242.6 323.94 243.48ZM318.52 245.24C319.173 245.24 319.66 245.087 319.98 244.78C320.3 244.473 320.46 244.04 320.46 243.48C320.46 242.92 320.3 242.487 319.98 242.18C319.66 241.873 319.173 241.72 318.52 241.72H316.66V245.24H318.52ZM334.46 250.52H329.22L328.38 253H324.8L329.88 238.96H333.84L338.92 253H335.3L334.46 250.52ZM333.58 247.88L331.84 242.74L330.12 247.88H333.58ZM349.787 243.4C349.533 242.933 349.167 242.58 348.687 242.34C348.22 242.087 347.667 241.96 347.027 241.96C345.92 241.96 345.033 242.327 344.367 243.06C343.7 243.78 343.367 244.747 343.367 245.96C343.367 247.253 343.713 248.267 344.407 249C345.113 249.72 346.08 250.08 347.307 250.08C348.147 250.08 348.853 249.867 349.427 249.44C350.013 249.013 350.44 248.4 350.707 247.6H346.367V245.08H353.807V248.26C353.553 249.113 353.12 249.907 352.507 250.64C351.907 251.373 351.14 251.967 350.207 252.42C349.273 252.873 348.22 253.1 347.047 253.1C345.66 253.1 344.42 252.8 343.327 252.2C342.247 251.587 341.4 250.74 340.787 249.66C340.187 248.58 339.887 247.347 339.887 245.96C339.887 244.573 340.187 243.34 340.787 242.26C341.4 241.167 342.247 240.32 343.327 239.72C344.407 239.107 345.64 238.8 347.027 238.8C348.707 238.8 350.12 239.207 351.267 240.02C352.427 240.833 353.193 241.96 353.567 243.4H349.787ZM359.121 241.7V244.54H363.701V247.18H359.121V250.26H364.301V253H355.701V238.96H364.301V241.7H359.121ZM383.32 253H379.9L374.18 244.34V253H370.76V238.96H374.18L379.9 247.66V238.96H383.32V253ZM392.439 253.14C391.119 253.14 389.905 252.833 388.799 252.22C387.705 251.607 386.832 250.753 386.179 249.66C385.539 248.553 385.219 247.313 385.219 245.94C385.219 244.567 385.539 243.333 386.179 242.24C386.832 241.147 387.705 240.293 388.799 239.68C389.905 239.067 391.119 238.76 392.439 238.76C393.759 238.76 394.965 239.067 396.059 239.68C397.165 240.293 398.032 241.147 398.659 242.24C399.299 243.333 399.619 244.567 399.619 245.94C399.619 247.313 399.299 248.553 398.659 249.66C398.019 250.753 397.152 251.607 396.059 252.22C394.965 252.833 393.759 253.14 392.439 253.14ZM392.439 250.02C393.559 250.02 394.452 249.647 395.119 248.9C395.799 248.153 396.139 247.167 396.139 245.94C396.139 244.7 395.799 243.713 395.119 242.98C394.452 242.233 393.559 241.86 392.439 241.86C391.305 241.86 390.399 242.227 389.719 242.96C389.052 243.693 388.719 244.687 388.719 245.94C388.719 247.18 389.052 248.173 389.719 248.92C390.399 249.653 391.305 250.02 392.439 250.02ZM411.621 238.96V241.7H407.901V253H404.481V241.7H400.761V238.96H411.621ZM426.716 238.96V241.7H420.996V244.66H425.276V247.32H420.996V253H417.576V238.96H426.716ZM435.153 253.14C433.833 253.14 432.62 252.833 431.513 252.22C430.42 251.607 429.547 250.753 428.893 249.66C428.253 248.553 427.933 247.313 427.933 245.94C427.933 244.567 428.253 243.333 428.893 242.24C429.547 241.147 430.42 240.293 431.513 239.68C432.62 239.067 433.833 238.76 435.153 238.76C436.473 238.76 437.68 239.067 438.773 239.68C439.88 240.293 440.747 241.147 441.373 242.24C442.013 243.333 442.333 244.567 442.333 245.94C442.333 247.313 442.013 248.553 441.373 249.66C440.733 250.753 439.867 251.607 438.773 252.22C437.68 252.833 436.473 253.14 435.153 253.14ZM435.153 250.02C436.273 250.02 437.167 249.647 437.833 248.9C438.513 248.153 438.853 247.167 438.853 245.94C438.853 244.7 438.513 243.713 437.833 242.98C437.167 242.233 436.273 241.86 435.153 241.86C434.02 241.86 433.113 242.227 432.433 242.96C431.767 243.693 431.433 244.687 431.433 245.94C431.433 247.18 431.767 248.173 432.433 248.92C433.113 249.653 434.02 250.02 435.153 250.02ZM447.596 238.96V247.36C447.596 248.2 447.803 248.847 448.216 249.3C448.629 249.753 449.236 249.98 450.036 249.98C450.836 249.98 451.449 249.753 451.876 249.3C452.303 248.847 452.516 248.2 452.516 247.36V238.96H455.936V247.34C455.936 248.593 455.669 249.653 455.136 250.52C454.603 251.387 453.883 252.04 452.976 252.48C452.083 252.92 451.083 253.14 449.976 253.14C448.869 253.14 447.876 252.927 446.996 252.5C446.129 252.06 445.443 251.407 444.936 250.54C444.429 249.66 444.176 248.593 444.176 247.34V238.96H447.596ZM470.898 253H467.478L461.758 244.34V253H458.338V238.96H461.758L467.478 247.66V238.96H470.898V253ZM478.637 238.96C480.117 238.96 481.41 239.253 482.517 239.84C483.623 240.427 484.477 241.253 485.077 242.32C485.69 243.373 485.997 244.593 485.997 245.98C485.997 247.353 485.69 248.573 485.077 249.64C484.477 250.707 483.617 251.533 482.497 252.12C481.39 252.707 480.103 253 478.637 253H473.377V238.96H478.637ZM478.417 250.04C479.71 250.04 480.717 249.687 481.437 248.98C482.157 248.273 482.517 247.273 482.517 245.98C482.517 244.687 482.157 243.68 481.437 242.96C480.717 242.24 479.71 241.88 478.417 241.88H476.797V250.04H478.417Z" fill="black"/>
<path d="M296.88 107.14C295.56 107.14 294.347 106.833 293.24 106.22C292.147 105.607 291.273 104.753 290.62 103.66C289.98 102.553 289.66 101.313 289.66 99.94C289.66 98.5667 289.98 97.3333 290.62 96.24C291.273 95.1467 292.147 94.2933 293.24 93.68C294.347 93.0667 295.56 92.76 296.88 92.76C298.2 92.76 299.407 93.0667 300.5 93.68C301.607 94.2933 302.473 95.1467 303.1 96.24C303.74 97.3333 304.06 98.5667 304.06 99.94C304.06 101.313 303.74 102.553 303.1 103.66C302.46 104.753 301.593 105.607 300.5 106.22C299.407 106.833 298.2 107.14 296.88 107.14ZM296.88 104.02C298 104.02 298.893 103.647 299.56 102.9C300.24 102.153 300.58 101.167 300.58 99.94C300.58 98.7 300.24 97.7133 299.56 96.98C298.893 96.2333 298 95.86 296.88 95.86C295.747 95.86 294.84 96.2267 294.16 96.96C293.493 97.6933 293.16 98.6867 293.16 99.94C293.16 101.18 293.493 102.173 294.16 102.92C294.84 103.653 295.747 104.02 296.88 104.02ZM312.603 107.14C311.283 107.14 310.069 106.833 308.963 106.22C307.869 105.607 306.996 104.753 306.343 103.66C305.703 102.553 305.383 101.313 305.383 99.94C305.383 98.5667 305.703 97.3333 306.343 96.24C306.996 95.1467 307.869 94.2933 308.963 93.68C310.069 93.0667 311.283 92.76 312.603 92.76C313.923 92.76 315.129 93.0667 316.223 93.68C317.329 94.2933 318.196 95.1467 318.823 96.24C319.463 97.3333 319.783 98.5667 319.783 99.94C319.783 101.313 319.463 102.553 318.823 103.66C318.183 104.753 317.316 105.607 316.223 106.22C315.129 106.833 313.923 107.14 312.603 107.14ZM312.603 104.02C313.723 104.02 314.616 103.647 315.283 102.9C315.963 102.153 316.303 101.167 316.303 99.94C316.303 98.7 315.963 97.7133 315.283 96.98C314.616 96.2333 313.723 95.86 312.603 95.86C311.469 95.86 310.563 96.2267 309.883 96.96C309.216 97.6933 308.883 98.6867 308.883 99.94C308.883 101.18 309.216 102.173 309.883 102.92C310.563 103.653 311.469 104.02 312.603 104.02ZM332.385 97.48C332.385 98.2933 332.199 99.04 331.825 99.72C331.452 100.387 330.879 100.927 330.105 101.34C329.332 101.753 328.372 101.96 327.225 101.96H325.105V107H321.685V92.96H327.225C328.345 92.96 329.292 93.1533 330.065 93.54C330.839 93.9267 331.419 94.46 331.805 95.14C332.192 95.82 332.385 96.6 332.385 97.48ZM326.965 99.24C327.619 99.24 328.105 99.0867 328.425 98.78C328.745 98.4733 328.905 98.04 328.905 97.48C328.905 96.92 328.745 96.4867 328.425 96.18C328.105 95.8733 327.619 95.72 326.965 95.72H325.105V99.24H326.965ZM339.246 107.14C338.219 107.14 337.299 106.973 336.486 106.64C335.672 106.307 335.019 105.813 334.526 105.16C334.046 104.507 333.792 103.72 333.766 102.8H337.406C337.459 103.32 337.639 103.72 337.946 104C338.252 104.267 338.652 104.4 339.146 104.4C339.652 104.4 340.052 104.287 340.346 104.06C340.639 103.82 340.786 103.493 340.786 103.08C340.786 102.733 340.666 102.447 340.426 102.22C340.199 101.993 339.912 101.807 339.566 101.66C339.232 101.513 338.752 101.347 338.126 101.16C337.219 100.88 336.479 100.6 335.906 100.32C335.332 100.04 334.839 99.6267 334.426 99.08C334.012 98.5333 333.806 97.82 333.806 96.94C333.806 95.6333 334.279 94.6133 335.226 93.88C336.172 93.1333 337.406 92.76 338.926 92.76C340.472 92.76 341.719 93.1333 342.666 93.88C343.612 94.6133 344.119 95.64 344.186 96.96H340.486C340.459 96.5067 340.292 96.1533 339.986 95.9C339.679 95.6333 339.286 95.5 338.806 95.5C338.392 95.5 338.059 95.6133 337.806 95.84C337.552 96.0533 337.426 96.3667 337.426 96.78C337.426 97.2333 337.639 97.5867 338.066 97.84C338.492 98.0933 339.159 98.3667 340.066 98.66C340.972 98.9667 341.706 99.26 342.266 99.54C342.839 99.82 343.332 100.227 343.746 100.76C344.159 101.293 344.366 101.98 344.366 102.82C344.366 103.62 344.159 104.347 343.746 105C343.346 105.653 342.759 106.173 341.986 106.56C341.212 106.947 340.299 107.14 339.246 107.14ZM348.07 107.16C347.47 107.16 346.977 106.987 346.59 106.64C346.217 106.28 346.03 105.84 346.03 105.32C346.03 104.787 346.217 104.34 346.59 103.98C346.977 103.62 347.47 103.44 348.07 103.44C348.657 103.44 349.137 103.62 349.51 103.98C349.897 104.34 350.09 104.787 350.09 105.32C350.09 105.84 349.897 106.28 349.51 106.64C349.137 106.987 348.657 107.16 348.07 107.16ZM353.715 107.16C353.115 107.16 352.622 106.987 352.235 106.64C351.862 106.28 351.675 105.84 351.675 105.32C351.675 104.787 351.862 104.34 352.235 103.98C352.622 103.62 353.115 103.44 353.715 103.44C354.302 103.44 354.782 103.62 355.155 103.98C355.542 104.34 355.735 104.787 355.735 105.32C355.735 105.84 355.542 106.28 355.155 106.64C354.782 106.987 354.302 107.16 353.715 107.16ZM359.36 107.16C358.76 107.16 358.266 106.987 357.88 106.64C357.506 106.28 357.32 105.84 357.32 105.32C357.32 104.787 357.506 104.34 357.88 103.98C358.266 103.62 358.76 103.44 359.36 103.44C359.946 103.44 360.426 103.62 360.8 103.98C361.186 104.34 361.38 104.787 361.38 105.32C361.38 105.84 361.186 106.28 360.8 106.64C360.426 106.987 359.946 107.16 359.36 107.16Z" fill="black"/>
<line x1="250" y1="225.5" x2="548" y2="225.5" stroke="#1AB98B" stroke-width="3"/>
<path d="M439.995 76.0292H358.438C353.267 76.0234 348.31 73.9667 344.654 70.3105C340.998 66.6543 338.941 61.6971 338.935 56.5264V56.1718H459.498V56.5264C459.492 61.6971 457.435 66.6543 453.779 70.3105C450.123 73.9667 445.166 76.0234 439.995 76.0292Z" fill="#E6E6E6"/>
<path d="M440.349 293.042H358.792C353.622 293.036 348.665 290.98 345.008 287.323C341.352 283.667 339.295 278.71 339.29 273.539V273.185H459.852V273.539C459.846 278.71 457.79 283.667 454.134 287.323C450.477 290.98 445.52 293.036 440.349 293.042Z" fill="#E6E6E6"/>
<path d="M549.67 564.882C549.671 565.039 549.64 565.194 549.58 565.338C549.521 565.483 549.433 565.614 549.323 565.725C549.212 565.835 549.081 565.923 548.936 565.983C548.791 566.042 548.636 566.073 548.48 566.072H1.19C0.874395 566.072 0.57174 565.947 0.348572 565.724C0.125403 565.501 0 565.198 0 564.882C0 564.567 0.125403 564.264 0.348572 564.041C0.57174 563.818 0.874395 563.692 1.19 563.692H548.48C548.636 563.692 548.791 563.722 548.936 563.782C549.081 563.842 549.212 563.929 549.323 564.04C549.433 564.15 549.521 564.282 549.58 564.426C549.64 564.571 549.671 564.726 549.67 564.882Z" fill="#CCCCCC"/>
<path d="M184.306 537.181H198.722L205.58 481.575L184.303 481.576L184.306 537.181Z" fill="#9E616A"/>
<path d="M179.424 530.07L202.213 528.709V538.473L223.879 553.437C224.949 554.176 225.755 555.237 226.179 556.467C226.603 557.696 226.623 559.029 226.236 560.27C225.849 561.512 225.076 562.597 224.028 563.368C222.98 564.139 221.714 564.554 220.414 564.554H193.282L188.606 554.896L186.78 564.554H176.55L179.424 530.07Z" fill="#2F2E41"/>
<path d="M135.277 227.892L133.865 234.622L132.664 259.447L180.908 252.915L184.613 224.169L179.492 215.755L135.277 227.892Z" fill="#9E616A"/>
<path d="M111.347 537.181H125.763L132.621 481.575L111.344 481.576L111.347 537.181Z" fill="#9E616A"/>
<path d="M103.526 438.941L103.525 438.792L108.922 413.6L112.249 401.059L103 327.63C100.822 274.281 131.772 248.637 132.016 248.385L132.687 247.687L182.323 246.472C209.029 262.473 206.006 349.992 210.896 409.511C211.245 413.755 215.627 420.02 214.55 424.057C206.004 456.084 208.508 490.718 201.997 491.742L182.036 491.465L171.726 444.676L181.243 408.989C177.022 408.212 174.106 387.578 174.106 387.578C172.267 385.394 165.917 366.822 165.917 366.822L157.452 315.412L143.851 403.836L147.126 424.581L144.416 431.713L132.808 490.599L132.684 491.548L110.799 489.363L103.526 438.941Z" fill="#2F2E41"/>
<path d="M106.465 530.07L129.254 528.709V538.473L150.921 553.437C151.991 554.176 152.797 555.237 153.221 556.467C153.645 557.696 153.665 559.029 153.278 560.27C152.891 561.512 152.117 562.597 151.07 563.368C150.022 564.139 148.756 564.554 147.455 564.554H120.324L115.647 554.896L113.821 564.554H103.592L106.465 530.07Z" fill="#2F2E41"/>
<path d="M175.078 130.806L187.246 144.326L201.862 171.874L194.682 205.842L197.821 221.782L202.456 239.304C184.597 249.183 163.382 235.539 143.893 229.479L124.717 237.952L125.731 214.63L126.251 155.869C126.271 153.613 126.754 151.384 127.672 149.322C128.589 147.26 129.92 145.408 131.583 143.882C133.246 142.356 135.204 141.188 137.337 140.45C139.471 139.712 141.732 139.421 143.983 139.594L156.827 130.13L175.078 130.806Z" fill="#1AB98B"/>
<path d="M171.67 123.729C185.841 123.729 197.328 112.242 197.328 98.0719C197.328 83.9018 185.841 72.4147 171.67 72.4147C157.5 72.4147 146.013 83.9018 146.013 98.0719C146.013 112.242 157.5 123.729 171.67 123.729Z" fill="#9E616A"/>
<path d="M201.861 88.8125C201.409 91.3265 190.608 92.5398 190.933 88.0671C188.832 92.2781 185.692 98.3891 189.692 105.389C188.125 107.096 187.138 109.254 186.872 111.555C186.606 113.857 187.074 116.183 188.21 118.202C189.348 120.052 190.302 122.01 191.057 124.047C191.209 124.541 191.318 125.048 191.382 125.561C191.447 126.077 191.371 126.601 191.163 127.078C190.956 127.555 190.623 127.967 190.202 128.271C189.78 128.575 189.284 128.76 188.766 128.806C188.248 128.853 187.728 128.759 187.258 128.535C176.378 123.206 157.404 124.109 145.501 127.361C145.58 125.045 145.548 122.735 145.406 120.43C144.971 123.312 143.808 126.036 142.027 128.344C139.989 128.947 137.991 129.573 136.056 130.192C135.761 130.288 135.445 130.301 135.143 130.232C134.841 130.163 134.563 130.012 134.339 129.798C134.115 129.583 133.954 129.311 133.872 129.012C133.79 128.713 133.791 128.397 133.875 128.098C134.252 126.73 134.322 125.294 134.081 123.895C133.589 120.993 132.13 118.368 131.099 115.616C130.068 112.864 129.481 109.7 130.742 107.044C132.701 102.92 138.221 101.659 140.655 97.7967C143.391 93.4589 141.266 87.8046 141.694 82.6895C142.297 75.4571 148.221 69.5808 154.898 66.7417C166.46 61.8249 180.925 65.8067 189.593 74.8949C190.809 74.0739 192.229 73.606 193.694 73.543C195.16 73.48 196.614 73.8244 197.896 74.538C200.458 75.9099 202.297 76.6237 203.447 79.2962C204.455 81.6436 202.321 86.2907 201.861 88.8125Z" fill="#2F2E41"/>
<path d="M190.841 390.533L130.476 330.168C129.775 329.466 129.382 328.514 129.382 327.522C129.382 326.529 129.775 325.577 130.476 324.875L172.68 282.671C173.383 281.97 174.335 281.576 175.327 281.576C176.319 281.576 177.271 281.97 177.974 282.671L238.338 343.036C239.039 343.738 239.433 344.69 239.433 345.682C239.433 346.675 239.039 347.626 238.338 348.329L196.134 390.533C195.432 391.234 194.48 391.627 193.488 391.627C192.495 391.627 191.543 391.234 190.841 390.533Z" fill="white"/>
<path d="M193.488 392.626C192.865 392.629 192.248 392.507 191.672 392.269C191.096 392.031 190.574 391.681 190.134 391.24L129.77 330.875C128.881 329.986 128.382 328.779 128.382 327.522C128.382 326.264 128.881 325.058 129.77 324.168L171.974 281.964C172.864 281.076 174.07 280.577 175.327 280.577C176.585 280.577 177.791 281.076 178.681 281.964L239.045 342.329C239.934 343.218 240.433 344.425 240.433 345.682C240.433 346.94 239.934 348.146 239.045 349.036L196.841 391.24C196.402 391.681 195.879 392.031 195.303 392.269C194.728 392.507 194.111 392.629 193.488 392.626ZM175.327 282.577C174.967 282.575 174.61 282.645 174.277 282.783C173.944 282.921 173.642 283.123 173.388 283.378L131.184 325.582C130.67 326.097 130.382 326.795 130.382 327.522C130.382 328.249 130.67 328.947 131.184 329.461L191.548 389.826C192.071 390.323 192.766 390.601 193.488 390.601C194.21 390.601 194.904 390.323 195.427 389.826L237.631 347.622C238.145 347.107 238.433 346.409 238.433 345.682C238.433 344.955 238.145 344.258 237.631 343.743L177.267 283.378C177.012 283.123 176.71 282.921 176.377 282.783C176.044 282.645 175.687 282.575 175.327 282.577Z" fill="#E6E6E6"/>
<path d="M168.097 288.286C167.086 286.993 166.371 285.494 166.003 283.894C165.634 282.295 165.621 280.634 165.964 279.029C166.307 277.424 166.997 275.914 167.987 274.604C168.976 273.295 170.241 272.219 171.692 271.451L172.641 170.638L191.484 179.285L187.339 276.786C188.467 279.308 188.631 282.157 187.799 284.792C186.967 287.427 185.198 289.665 182.826 291.083C180.454 292.5 177.645 292.999 174.93 292.483C172.215 291.968 169.784 290.474 168.097 288.286Z" fill="#9E616A"/>
<path d="M168.604 145.114C168.604 145.114 186.934 136.223 189.469 152.998C192.004 169.773 202.43 213.431 202.43 213.431L170.791 211.194L168.604 145.114Z" fill="#9E616A"/>
<path d="M168.097 288.286C167.086 286.993 166.371 285.494 166.003 283.894C165.634 282.295 165.621 280.634 165.964 279.029C166.307 277.424 166.997 275.914 167.987 274.604C168.976 273.295 170.241 272.219 171.692 271.451L172.641 170.638L191.484 179.285L187.339 276.786C188.467 279.308 188.631 282.157 187.799 284.792C186.967 287.427 185.198 289.665 182.826 291.083C180.454 292.5 177.645 292.999 174.93 292.483C172.215 291.968 169.784 290.474 168.097 288.286Z" fill="#9E616A"/>
<path d="M168.604 145.114C168.604 145.114 186.934 136.223 189.469 152.998C192.004 169.773 202.43 213.431 202.43 213.431L170.791 211.194L168.604 145.114Z" fill="#1AB98B"/>
</g>
<defs>
<clipPath id="clip0_309_69">
<rect width="550.71" height="567.986" fill="white"/>
</clipPath>
</defs>
</svg>
