<svg xmlns="http://www.w3.org/2000/svg" viewBox="185.056 186.55 101.52 52.625" width="101.52" height="52.625">
  <path d="M 9.14 0.54 C 7.413 0.54 6.077 0.103 5.13 -0.77 C 4.183 -1.65 3.71 -2.893 3.71 -4.5 L 3.71 -14.18 L 0.83 -14.18 L 0.83 -18.54 L 3.71 -18.54 L 3.71 -22.5 C 5.41 -22.787 7.09 -23.003 8.75 -23.15 L 8.75 -18.54 L 13.43 -18.54 L 13.43 -14.18 L 8.75 -14.18 L 8.75 -5.44 C 8.75 -4.933 8.9 -4.547 9.2 -4.28 C 9.5 -4.02 9.927 -3.89 10.48 -3.89 C 11.147 -3.89 11.913 -4.047 12.78 -4.36 L 13.9 -0.54 C 12.36 0.18 10.773 0.54 9.14 0.54 ZM 21.989 0.54 C 20.069 0.54 18.546 -0.277 17.419 -1.91 C 16.292 -3.543 15.729 -5.763 15.729 -8.57 C 15.729 -11.977 16.592 -14.573 18.319 -16.36 C 20.046 -18.147 22.529 -19.04 25.769 -19.04 C 27.596 -19.04 29.732 -18.753 32.179 -18.18 L 32.179 0 L 27.359 0 L 27.469 -2.95 L 27.319 -2.95 C 26.699 -1.823 25.939 -0.96 25.039 -0.36 C 24.139 0.24 23.122 0.54 21.989 0.54 Z M 23.069 -3.89 C 23.816 -3.89 24.549 -4.287 25.269 -5.08 C 25.989 -5.867 26.662 -6.92 27.289 -8.24 L 27.289 -14.29 C 26.516 -14.51 25.746 -14.62 24.979 -14.62 C 23.539 -14.62 22.452 -14.127 21.719 -13.14 C 20.992 -12.153 20.629 -10.7 20.629 -8.78 C 20.629 -7.273 20.842 -6.08 21.269 -5.2 C 21.702 -4.327 22.302 -3.89 23.069 -3.89 ZM 37.147 0 L 37.147 -18.54 L 42.217 -18.54 L 42.217 -15.52 L 42.507 -15.52 C 43.207 -16.74 43.897 -17.64 44.577 -18.22 C 45.263 -18.793 46.123 -19.08 47.157 -19.08 C 47.583 -19.08 47.943 -19.033 48.237 -18.94 L 47.697 -13.46 C 47.07 -13.633 46.563 -13.72 46.177 -13.72 C 45.63 -13.72 45.147 -13.61 44.727 -13.39 C 44.307 -13.177 43.933 -12.89 43.607 -12.53 C 43.28 -12.17 42.817 -11.617 42.217 -10.87 L 42.217 0 L 37.147 0 ZM 56.11 0.54 C 54.19 0.54 52.666 -0.277 51.54 -1.91 C 50.413 -3.543 49.85 -5.763 49.85 -8.57 C 49.85 -11.977 50.713 -14.573 52.44 -16.36 C 54.166 -18.147 56.65 -19.04 59.89 -19.04 C 61.716 -19.04 63.853 -18.753 66.3 -18.18 L 66.3 0 L 61.48 0 L 61.59 -2.95 L 61.44 -2.95 C 60.82 -1.823 60.06 -0.96 59.16 -0.36 C 58.26 0.24 57.243 0.54 56.11 0.54 Z M 57.19 -3.89 C 57.936 -3.89 58.67 -4.287 59.39 -5.08 C 60.11 -5.867 60.783 -6.92 61.41 -8.24 L 61.41 -14.29 C 60.636 -14.51 59.866 -14.62 59.1 -14.62 C 57.66 -14.62 56.573 -14.127 55.84 -13.14 C 55.113 -12.153 54.75 -10.7 54.75 -8.78 C 54.75 -7.273 54.963 -6.08 55.39 -5.2 C 55.823 -4.327 56.423 -3.89 57.19 -3.89 ZM 69.787 0 L 69.787 -4.36 L 73.067 -4.36 L 73.067 -21.96 L 69.967 -21.96 L 69.967 -26.28 L 78.137 -26.28 L 78.137 -4.36 L 81.417 -4.36 L 81.417 0 L 69.787 0 Z" transform="matrix(1.2171800136566162, 0, 0, 1, 185.74021911621094, 223.5028839111328)" style="fill: rgb(64, 159, 241); paint-order: fill; stroke-width: 0px; white-space: pre;"/>
</svg>